<svg width="24" height="24" viewBox="0 0 24 24" fill="none" xmlns="http://www.w3.org/2000/svg">
<path d="M20.8901 11.7349L15.2651 6.10988C15.1574 6.00293 14.9974 5.97034 14.8564 6.02856C14.7162 6.08643 14.625 6.2234 14.625 6.37499V7.12498C14.625 7.22458 14.6646 7.31981 14.7349 7.39013L18.5947 11.25H3.37501C3.16773 11.25 3 11.4177 3 11.625V12.375C3 12.5823 3.16773 12.75 3.37501 12.75H18.5947L14.7349 16.6099C14.6646 16.6802 14.625 16.7754 14.625 16.875V17.625C14.625 17.7766 14.7162 17.9136 14.8564 17.9714C14.903 17.9909 14.9516 18 15 18C15.0974 18 15.1933 17.962 15.2651 17.8902L20.8901 12.2652C21.0366 12.1187 21.0366 11.8814 20.8901 11.7349Z" fill="black"/>
</svg>
