<svg width="24" height="24" viewBox="0 0 24 24" fill="none" xmlns="http://www.w3.org/2000/svg">
<path d="M20.625 11.25H5.40526L9.26513 7.39015C9.33544 7.31983 9.37499 7.22463 9.37499 7.125V6.37501C9.37499 6.22338 9.2838 6.08645 9.14356 6.02858C9.09705 6.00918 9.04836 6 9.00002 6C8.9026 6 8.80666 6.03807 8.73487 6.10986L3.10987 11.7349C2.96338 11.8814 2.96338 12.1187 3.10987 12.2651L8.73487 17.8901C8.84255 17.9971 9.00258 18.0296 9.14356 17.9714C9.28383 17.9136 9.37499 17.7766 9.37499 17.625V16.875C9.37499 16.7754 9.33544 16.6802 9.26513 16.6099L5.40526 12.75H20.625C20.8323 12.75 21 12.5823 21 12.375V11.625C21 11.4177 20.8322 11.25 20.625 11.25Z" fill="black"/>
</svg>
