<svg width="45" height="45" viewBox="0 0 45 45" fill="none" xmlns="http://www.w3.org/2000/svg">
<mask id="path-1-outside-1_1563_24152" maskUnits="userSpaceOnUse" x="4" y="3" width="36" height="39" fill="black">
<rect fill="white" x="4" y="3" width="36" height="39"/>
<path d="M29.5537 31.3294L38.273 22.9346C38.7311 22.475 38.9916 21.8573 38.9998 21.2113C39.008 20.5653 38.7632 19.9413 38.3169 19.4705C37.8706 18.9996 37.2576 18.7185 36.6066 18.6863C35.9555 18.6541 35.3173 18.8732 34.8259 19.2977L30.396 23.2825H20.4639C19.3115 23.2788 18.1698 23.5017 17.1049 23.9382C16.0399 24.3747 15.0729 25.0163 14.2598 25.8257L10.8984 29.022L10.7151 28.8829C10.4138 28.6028 10.0127 28.4527 9.59988 28.4654C9.18642 28.4784 8.79507 28.6535 8.51191 28.9524L5.42349 32.2183C5.28298 32.3664 5.17331 32.5406 5.10078 32.7307C5.02825 32.9209 4.99427 33.1234 5.00079 33.3266C5.00731 33.5298 5.0542 33.7297 5.13878 33.9149C5.22335 34.1001 5.34396 34.267 5.49368 34.4059L12.6064 40.9803C12.7558 41.1195 12.9315 41.2282 13.1234 41.3001C13.3152 41.372 13.5195 41.4057 13.7245 41.3992C13.9295 41.3928 14.1313 41.3463 14.3181 41.2625C14.505 41.1786 14.6733 41.0591 14.8135 40.9107L17.902 37.6448C18.0431 37.4966 18.1532 37.3222 18.2261 37.1317C18.299 36.9412 18.3331 36.7382 18.3266 36.5346C18.3201 36.3309 18.273 36.1306 18.1881 35.945C18.1032 35.7594 17.9821 35.5923 17.8318 35.4533L18.8339 34.5721L25.4319 33.3005C26.9832 33.0973 28.4278 32.4064 29.5537 31.3294ZM17.3443 37.1153L14.2559 40.3812C14.1858 40.4554 14.1016 40.5152 14.0082 40.5571C13.9148 40.599 13.8139 40.6222 13.7114 40.6255C13.6089 40.6287 13.5068 40.6119 13.4108 40.5759C13.3149 40.54 13.2271 40.4856 13.1523 40.416L6.03572 33.8223C5.96083 33.7526 5.90057 33.6689 5.85841 33.5761C5.81625 33.4832 5.79302 33.383 5.79005 33.2812C5.78874 33.0833 5.86411 32.8924 6.00062 32.7478L9.09294 29.4819C9.16199 29.4071 9.24562 29.347 9.33878 29.3051C9.43195 29.2633 9.53271 29.2406 9.63497 29.2384H9.66227C9.85983 29.2402 10.0494 29.3161 10.1926 29.451L10.6333 29.8375L16.9895 35.7355L17.2975 36.0215C17.3724 36.0912 17.4327 36.1749 17.4748 36.2677C17.517 36.3606 17.5402 36.4608 17.5432 36.5626C17.5528 36.7656 17.4813 36.9641 17.3443 37.1153ZM18.5922 33.8416C18.5242 33.8546 18.4609 33.8853 18.4089 33.9305L17.2741 34.9316L15.6168 33.3856L11.4677 29.5515L14.8057 26.3783C15.5478 25.6409 16.4299 25.0563 17.401 24.6583C18.3721 24.2603 19.4131 24.0567 20.4639 24.0594H30.0061C30.336 24.0594 30.6524 24.1893 30.8857 24.4205C31.119 24.6517 31.25 24.9653 31.25 25.2923C31.25 25.6193 31.119 25.9329 30.8857 26.1641C30.6524 26.3953 30.336 26.5252 30.0061 26.5252H23.9735C23.8701 26.5252 23.7709 26.5659 23.6978 26.6384C23.6246 26.7109 23.5836 26.8092 23.5836 26.9117C23.5836 27.0142 23.6246 27.1125 23.6978 27.185C23.7709 27.2575 23.8701 27.2982 23.9735 27.2982H30.0178C30.4509 27.3024 30.874 27.1687 31.2248 26.9167C31.5756 26.6648 31.8356 26.308 31.9665 25.8987C32.0975 25.4895 32.0925 25.0494 31.9523 24.6431C31.8121 24.2369 31.544 23.886 31.1876 23.6419L35.3796 19.8697C35.7157 19.5566 36.1636 19.3886 36.6247 19.4027C37.0858 19.4168 37.5223 19.6119 37.8383 19.9451C38.1542 20.2782 38.3237 20.7221 38.3094 21.1791C38.2952 21.6361 38.0983 22.0688 37.7622 22.382L29.0117 30.7728C27.9997 31.7434 26.6995 32.3654 25.3032 32.5469L18.5922 33.8416ZM20.1793 16.0356C20.3058 16.1758 20.4441 16.3051 20.5926 16.4221L20.6628 16.4763C21.3063 16.971 22.0786 17.274 22.8894 17.3497H23.3028C24.4351 17.3442 25.521 16.903 26.3314 16.1192C27.1419 15.3354 27.6135 14.2703 27.6469 13.1485C27.6625 12.5844 27.5647 12.0229 27.3592 11.4967C27.1536 10.9705 26.8445 10.4901 26.4497 10.0836C25.6543 9.26141 24.5626 8.78515 23.4137 8.75907C22.2647 8.733 21.1522 9.15922 20.3197 9.94443C20.0441 10.209 19.8042 10.5078 19.606 10.8334C19.5229 10.9663 19.4487 11.1044 19.3838 11.2469C19.0106 12.0298 18.8853 12.9064 19.0245 13.7612C19.1637 14.616 19.5609 15.4089 20.1637 16.0356H20.1793ZM19.8439 12.333C19.9261 11.9447 20.0751 11.5734 20.2846 11.2353C20.4413 10.9706 20.6328 10.7275 20.8539 10.5126C21.5351 9.86705 22.4467 9.51554 23.3889 9.5351C24.3311 9.55466 25.2271 9.9437 25.8804 10.6169C26.2038 10.9502 26.4569 11.344 26.625 11.7754C26.7931 12.2067 26.8727 12.667 26.8592 13.1292C26.8453 13.7853 26.6473 14.4247 26.2874 14.9756C25.9275 15.5265 25.4198 15.9671 24.8214 16.2481C24.2229 16.529 23.5573 16.6391 22.8992 16.5661C22.2412 16.4931 21.6166 16.2398 21.0957 15.8347L21.0567 15.8037C20.9375 15.7117 20.8254 15.6109 20.7213 15.5023C20.3232 15.086 20.0335 14.5799 19.8772 14.0276C19.7209 13.4754 19.7028 12.8937 19.8244 12.333H19.8439ZM16.0107 10.6749L14.5796 10.8952C14.4873 10.91 14.4035 10.9572 14.3433 11.0281C14.2832 11.0991 14.2508 11.1891 14.252 11.2817L14.1701 14.4896C14.1684 14.5806 14.1992 14.6693 14.257 14.7399C14.3148 14.8106 14.3959 14.8589 14.486 14.8761L15.9015 15.1506C16.0279 15.6209 16.2003 16.0778 16.4162 16.5149L15.5583 17.6744C15.5032 17.7477 15.476 17.8381 15.4818 17.9294C15.4875 18.0206 15.5257 18.107 15.5895 18.173L17.8201 20.492C17.8835 20.5578 17.9684 20.5993 18.0597 20.6092C18.151 20.6191 18.2429 20.5968 18.3192 20.5461L19.5242 19.746C19.9533 19.9865 20.4052 20.1845 20.8734 20.3374L21.0879 21.7481C21.102 21.8403 21.1492 21.9243 21.2209 21.9846C21.2925 22.045 21.3838 22.0777 21.4778 22.0766L24.7144 22.1462C24.8062 22.1478 24.8956 22.1174 24.967 22.0601C25.0383 22.0028 25.0869 21.9224 25.1044 21.8331L25.389 20.4263C25.8646 20.296 26.3258 20.1186 26.7656 19.8968L27.7092 20.5809L27.7521 20.6079L27.9276 20.7355C28.0017 20.7886 28.0923 20.8142 28.1836 20.8079C28.2748 20.8015 28.3609 20.7636 28.4268 20.7007L30.7665 18.4822C30.8335 18.4198 30.8761 18.3359 30.8868 18.2454C30.8976 18.1549 30.8756 18.0635 30.825 17.9875L30.0451 16.8009C30.2734 16.367 30.4601 15.9128 30.6027 15.4443L32.0299 15.224C32.1229 15.21 32.2077 15.1632 32.2686 15.0922C32.3295 15.0212 32.3624 14.9307 32.3614 14.8375L32.4433 11.6218C32.4451 11.5314 32.4149 11.4432 32.3579 11.3726C32.3009 11.302 32.2207 11.2534 32.1313 11.2353L30.7197 10.9571C30.5938 10.4927 30.4241 10.041 30.2127 9.60817L31.0706 8.44868C31.1258 8.37535 31.1529 8.28501 31.1472 8.19372C31.1415 8.10243 31.1033 8.0161 31.0394 7.95009L28.8011 5.6311C28.7379 5.56623 28.6538 5.52531 28.5633 5.51543C28.4729 5.50555 28.3818 5.52733 28.3059 5.57699L27.0931 6.38864C26.6646 6.15354 26.2156 5.95693 25.7517 5.80116L25.5333 4.39431C25.5192 4.30215 25.472 4.21814 25.4003 4.15777C25.3287 4.0974 25.2374 4.06473 25.1434 4.06578L21.9068 4.00008C21.8155 3.99826 21.7265 4.0282 21.6553 4.08469C21.584 4.14119 21.535 4.22066 21.5168 4.30928L21.2438 5.71613C20.7674 5.84758 20.305 6.02492 19.8634 6.24564L18.6936 5.40307C18.6196 5.34839 18.5284 5.32149 18.4363 5.32716C18.3442 5.33282 18.2571 5.37067 18.1905 5.43399L15.8508 7.65636C15.7854 7.71901 15.7441 7.80237 15.7341 7.89201C15.7241 7.98166 15.7461 8.07193 15.7962 8.14721L16.5761 9.33376C16.4864 9.49609 16.3967 9.66228 16.3149 9.84007C16.1946 10.1126 16.0891 10.3912 15.999 10.6749H16.0107ZM16.6853 11.1271C16.7855 10.798 16.9093 10.4764 17.0558 10.1647C17.1567 9.94529 17.2713 9.7323 17.3989 9.52701C17.4392 9.46473 17.4607 9.39229 17.4607 9.3183C17.4607 9.24431 17.4392 9.17187 17.3989 9.10959L16.6541 7.98874L18.5142 6.21858L19.6099 7.01477C19.6697 7.05808 19.7407 7.08362 19.8146 7.08841C19.8885 7.0932 19.9622 7.07704 20.0272 7.04182C20.5095 6.7777 21.0229 6.57388 21.5558 6.43502H21.6026H21.6611C21.7367 6.42056 21.8064 6.3842 21.8612 6.33055C21.916 6.27689 21.9536 6.20834 21.9692 6.13355L22.2343 4.81173L24.8197 4.86197L25.0225 6.18766C25.0337 6.26059 25.0657 6.32882 25.1147 6.3843C25.1638 6.43977 25.2279 6.48017 25.2993 6.50072C25.8657 6.66732 26.4082 6.90501 26.9137 7.20802C26.9762 7.24719 27.0485 7.26798 27.1224 7.26798C27.1962 7.26798 27.2686 7.24719 27.331 7.20802L28.4658 6.45821L30.2478 8.30181L29.4328 9.34535C29.3891 9.40461 29.3634 9.47496 29.3585 9.5482C29.3537 9.62143 29.37 9.69452 29.4055 9.75891C29.6884 10.2759 29.9033 10.8266 30.0451 11.3977C30.063 11.4691 30.1012 11.534 30.1551 11.5846C30.2089 11.6353 30.2763 11.6697 30.3492 11.6837L31.6751 11.9465L31.6088 14.509L30.2595 14.7177C30.186 14.7288 30.1171 14.7605 30.0611 14.8091C30.0052 14.8578 29.9644 14.9213 29.9437 14.9921C29.7801 15.5544 29.5414 16.0925 29.234 16.5922C29.1944 16.6541 29.1735 16.7258 29.1735 16.799C29.1735 16.8722 29.1944 16.9439 29.234 17.0058L29.9827 18.1227L28.107 19.9006L27.0151 19.1044C26.9554 19.0611 26.8844 19.0356 26.8105 19.0308C26.7366 19.026 26.6629 19.0422 26.5979 19.0774C26.078 19.3622 25.5219 19.5767 24.9445 19.7151C24.8724 19.7329 24.807 19.7707 24.7558 19.8241C24.7047 19.8775 24.6701 19.9443 24.6559 20.0166L24.3908 21.3423L21.8054 21.2882L21.6065 19.9586C21.5957 19.8845 21.5634 19.8151 21.5136 19.7588C21.4637 19.7026 21.3985 19.6619 21.3257 19.6417C20.7577 19.4795 20.2146 19.2416 19.7113 18.9344C19.6489 18.8952 19.5766 18.8744 19.5027 18.8744C19.4288 18.8744 19.3565 18.8952 19.2941 18.9344L18.1554 19.7074L16.3772 17.8599L17.1805 16.7777C17.2249 16.7189 17.2513 16.6487 17.2568 16.5754C17.2624 16.5022 17.2467 16.4289 17.2117 16.3642C16.9309 15.8471 16.7186 15.2963 16.58 14.7254C16.5627 14.6533 16.5248 14.5876 16.4709 14.5362C16.417 14.4848 16.3493 14.4498 16.2759 14.4355L14.9422 14.1805L15.0046 11.6102L16.3577 11.4015C16.4313 11.3904 16.5002 11.3587 16.5561 11.3101C16.6121 11.2614 16.6529 11.198 16.6736 11.1271H16.6853Z"/>
</mask>
<path d="M29.5537 31.3294L38.273 22.9346C38.7311 22.475 38.9916 21.8573 38.9998 21.2113C39.008 20.5653 38.7632 19.9413 38.3169 19.4705C37.8706 18.9996 37.2576 18.7185 36.6066 18.6863C35.9555 18.6541 35.3173 18.8732 34.8259 19.2977L30.396 23.2825H20.4639C19.3115 23.2788 18.1698 23.5017 17.1049 23.9382C16.0399 24.3747 15.0729 25.0163 14.2598 25.8257L10.8984 29.022L10.7151 28.8829C10.4138 28.6028 10.0127 28.4527 9.59988 28.4654C9.18642 28.4784 8.79507 28.6535 8.51191 28.9524L5.42349 32.2183C5.28298 32.3664 5.17331 32.5406 5.10078 32.7307C5.02825 32.9209 4.99427 33.1234 5.00079 33.3266C5.00731 33.5298 5.0542 33.7297 5.13878 33.9149C5.22335 34.1001 5.34396 34.267 5.49368 34.4059L12.6064 40.9803C12.7558 41.1195 12.9315 41.2282 13.1234 41.3001C13.3152 41.372 13.5195 41.4057 13.7245 41.3992C13.9295 41.3928 14.1313 41.3463 14.3181 41.2625C14.505 41.1786 14.6733 41.0591 14.8135 40.9107L17.902 37.6448C18.0431 37.4966 18.1532 37.3222 18.2261 37.1317C18.299 36.9412 18.3331 36.7382 18.3266 36.5346C18.3201 36.3309 18.273 36.1306 18.1881 35.945C18.1032 35.7594 17.9821 35.5923 17.8318 35.4533L18.8339 34.5721L25.4319 33.3005C26.9832 33.0973 28.4278 32.4064 29.5537 31.3294ZM17.3443 37.1153L14.2559 40.3812C14.1858 40.4554 14.1016 40.5152 14.0082 40.5571C13.9148 40.599 13.8139 40.6222 13.7114 40.6255C13.6089 40.6287 13.5068 40.6119 13.4108 40.5759C13.3149 40.54 13.2271 40.4856 13.1523 40.416L6.03572 33.8223C5.96083 33.7526 5.90057 33.6689 5.85841 33.5761C5.81625 33.4832 5.79302 33.383 5.79005 33.2812C5.78874 33.0833 5.86411 32.8924 6.00062 32.7478L9.09294 29.4819C9.16199 29.4071 9.24562 29.347 9.33878 29.3051C9.43195 29.2633 9.53271 29.2406 9.63497 29.2384H9.66227C9.85983 29.2402 10.0494 29.3161 10.1926 29.451L10.6333 29.8375L16.9895 35.7355L17.2975 36.0215C17.3724 36.0912 17.4327 36.1749 17.4748 36.2677C17.517 36.3606 17.5402 36.4608 17.5432 36.5626C17.5528 36.7656 17.4813 36.9641 17.3443 37.1153ZM18.5922 33.8416C18.5242 33.8546 18.4609 33.8853 18.4089 33.9305L17.2741 34.9316L15.6168 33.3856L11.4677 29.5515L14.8057 26.3783C15.5478 25.6409 16.4299 25.0563 17.401 24.6583C18.3721 24.2603 19.4131 24.0567 20.4639 24.0594H30.0061C30.336 24.0594 30.6524 24.1893 30.8857 24.4205C31.119 24.6517 31.25 24.9653 31.25 25.2923C31.25 25.6193 31.119 25.9329 30.8857 26.1641C30.6524 26.3953 30.336 26.5252 30.0061 26.5252H23.9735C23.8701 26.5252 23.7709 26.5659 23.6978 26.6384C23.6246 26.7109 23.5836 26.8092 23.5836 26.9117C23.5836 27.0142 23.6246 27.1125 23.6978 27.185C23.7709 27.2575 23.8701 27.2982 23.9735 27.2982H30.0178C30.4509 27.3024 30.874 27.1687 31.2248 26.9167C31.5756 26.6648 31.8356 26.308 31.9665 25.8987C32.0975 25.4895 32.0925 25.0494 31.9523 24.6431C31.8121 24.2369 31.544 23.886 31.1876 23.6419L35.3796 19.8697C35.7157 19.5566 36.1636 19.3886 36.6247 19.4027C37.0858 19.4168 37.5223 19.6119 37.8383 19.9451C38.1542 20.2782 38.3237 20.7221 38.3094 21.1791C38.2952 21.6361 38.0983 22.0688 37.7622 22.382L29.0117 30.7728C27.9997 31.7434 26.6995 32.3654 25.3032 32.5469L18.5922 33.8416ZM20.1793 16.0356C20.3058 16.1758 20.4441 16.3051 20.5926 16.4221L20.6628 16.4763C21.3063 16.971 22.0786 17.274 22.8894 17.3497H23.3028C24.4351 17.3442 25.521 16.903 26.3314 16.1192C27.1419 15.3354 27.6135 14.2703 27.6469 13.1485C27.6625 12.5844 27.5647 12.0229 27.3592 11.4967C27.1536 10.9705 26.8445 10.4901 26.4497 10.0836C25.6543 9.26141 24.5626 8.78515 23.4137 8.75907C22.2647 8.733 21.1522 9.15922 20.3197 9.94443C20.0441 10.209 19.8042 10.5078 19.606 10.8334C19.5229 10.9663 19.4487 11.1044 19.3838 11.2469C19.0106 12.0298 18.8853 12.9064 19.0245 13.7612C19.1637 14.616 19.5609 15.4089 20.1637 16.0356H20.1793ZM19.8439 12.333C19.9261 11.9447 20.0751 11.5734 20.2846 11.2353C20.4413 10.9706 20.6328 10.7275 20.8539 10.5126C21.5351 9.86705 22.4467 9.51554 23.3889 9.5351C24.3311 9.55466 25.2271 9.9437 25.8804 10.6169C26.2038 10.9502 26.4569 11.344 26.625 11.7754C26.7931 12.2067 26.8727 12.667 26.8592 13.1292C26.8453 13.7853 26.6473 14.4247 26.2874 14.9756C25.9275 15.5265 25.4198 15.9671 24.8214 16.2481C24.2229 16.529 23.5573 16.6391 22.8992 16.5661C22.2412 16.4931 21.6166 16.2398 21.0957 15.8347L21.0567 15.8037C20.9375 15.7117 20.8254 15.6109 20.7213 15.5023C20.3232 15.086 20.0335 14.5799 19.8772 14.0276C19.7209 13.4754 19.7028 12.8937 19.8244 12.333H19.8439ZM16.0107 10.6749L14.5796 10.8952C14.4873 10.91 14.4035 10.9572 14.3433 11.0281C14.2832 11.0991 14.2508 11.1891 14.252 11.2817L14.1701 14.4896C14.1684 14.5806 14.1992 14.6693 14.257 14.7399C14.3148 14.8106 14.3959 14.8589 14.486 14.8761L15.9015 15.1506C16.0279 15.6209 16.2003 16.0778 16.4162 16.5149L15.5583 17.6744C15.5032 17.7477 15.476 17.8381 15.4818 17.9294C15.4875 18.0206 15.5257 18.107 15.5895 18.173L17.8201 20.492C17.8835 20.5578 17.9684 20.5993 18.0597 20.6092C18.151 20.6191 18.2429 20.5968 18.3192 20.5461L19.5242 19.746C19.9533 19.9865 20.4052 20.1845 20.8734 20.3374L21.0879 21.7481C21.102 21.8403 21.1492 21.9243 21.2209 21.9846C21.2925 22.045 21.3838 22.0777 21.4778 22.0766L24.7144 22.1462C24.8062 22.1478 24.8956 22.1174 24.967 22.0601C25.0383 22.0028 25.0869 21.9224 25.1044 21.8331L25.389 20.4263C25.8646 20.296 26.3258 20.1186 26.7656 19.8968L27.7092 20.5809L27.7521 20.6079L27.9276 20.7355C28.0017 20.7886 28.0923 20.8142 28.1836 20.8079C28.2748 20.8015 28.3609 20.7636 28.4268 20.7007L30.7665 18.4822C30.8335 18.4198 30.8761 18.3359 30.8868 18.2454C30.8976 18.1549 30.8756 18.0635 30.825 17.9875L30.0451 16.8009C30.2734 16.367 30.4601 15.9128 30.6027 15.4443L32.0299 15.224C32.1229 15.21 32.2077 15.1632 32.2686 15.0922C32.3295 15.0212 32.3624 14.9307 32.3614 14.8375L32.4433 11.6218C32.4451 11.5314 32.4149 11.4432 32.3579 11.3726C32.3009 11.302 32.2207 11.2534 32.1313 11.2353L30.7197 10.9571C30.5938 10.4927 30.4241 10.041 30.2127 9.60817L31.0706 8.44868C31.1258 8.37535 31.1529 8.28501 31.1472 8.19372C31.1415 8.10243 31.1033 8.0161 31.0394 7.95009L28.8011 5.6311C28.7379 5.56623 28.6538 5.52531 28.5633 5.51543C28.4729 5.50555 28.3818 5.52733 28.3059 5.57699L27.0931 6.38864C26.6646 6.15354 26.2156 5.95693 25.7517 5.80116L25.5333 4.39431C25.5192 4.30215 25.472 4.21814 25.4003 4.15777C25.3287 4.0974 25.2374 4.06473 25.1434 4.06578L21.9068 4.00008C21.8155 3.99826 21.7265 4.0282 21.6553 4.08469C21.584 4.14119 21.535 4.22066 21.5168 4.30928L21.2438 5.71613C20.7674 5.84758 20.305 6.02492 19.8634 6.24564L18.6936 5.40307C18.6196 5.34839 18.5284 5.32149 18.4363 5.32716C18.3442 5.33282 18.2571 5.37067 18.1905 5.43399L15.8508 7.65636C15.7854 7.71901 15.7441 7.80237 15.7341 7.89201C15.7241 7.98166 15.7461 8.07193 15.7962 8.14721L16.5761 9.33376C16.4864 9.49609 16.3967 9.66228 16.3149 9.84007C16.1946 10.1126 16.0891 10.3912 15.999 10.6749H16.0107ZM16.6853 11.1271C16.7855 10.798 16.9093 10.4764 17.0558 10.1647C17.1567 9.94529 17.2713 9.7323 17.3989 9.52701C17.4392 9.46473 17.4607 9.39229 17.4607 9.3183C17.4607 9.24431 17.4392 9.17187 17.3989 9.10959L16.6541 7.98874L18.5142 6.21858L19.6099 7.01477C19.6697 7.05808 19.7407 7.08362 19.8146 7.08841C19.8885 7.0932 19.9622 7.07704 20.0272 7.04182C20.5095 6.7777 21.0229 6.57388 21.5558 6.43502H21.6026H21.6611C21.7367 6.42056 21.8064 6.3842 21.8612 6.33055C21.916 6.27689 21.9536 6.20834 21.9692 6.13355L22.2343 4.81173L24.8197 4.86197L25.0225 6.18766C25.0337 6.26059 25.0657 6.32882 25.1147 6.3843C25.1638 6.43977 25.2279 6.48017 25.2993 6.50072C25.8657 6.66732 26.4082 6.90501 26.9137 7.20802C26.9762 7.24719 27.0485 7.26798 27.1224 7.26798C27.1962 7.26798 27.2686 7.24719 27.331 7.20802L28.4658 6.45821L30.2478 8.30181L29.4328 9.34535C29.3891 9.40461 29.3634 9.47496 29.3585 9.5482C29.3537 9.62143 29.37 9.69452 29.4055 9.75891C29.6884 10.2759 29.9033 10.8266 30.0451 11.3977C30.063 11.4691 30.1012 11.534 30.1551 11.5846C30.2089 11.6353 30.2763 11.6697 30.3492 11.6837L31.6751 11.9465L31.6088 14.509L30.2595 14.7177C30.186 14.7288 30.1171 14.7605 30.0611 14.8091C30.0052 14.8578 29.9644 14.9213 29.9437 14.9921C29.7801 15.5544 29.5414 16.0925 29.234 16.5922C29.1944 16.6541 29.1735 16.7258 29.1735 16.799C29.1735 16.8722 29.1944 16.9439 29.234 17.0058L29.9827 18.1227L28.107 19.9006L27.0151 19.1044C26.9554 19.0611 26.8844 19.0356 26.8105 19.0308C26.7366 19.026 26.6629 19.0422 26.5979 19.0774C26.078 19.3622 25.5219 19.5767 24.9445 19.7151C24.8724 19.7329 24.807 19.7707 24.7558 19.8241C24.7047 19.8775 24.6701 19.9443 24.6559 20.0166L24.3908 21.3423L21.8054 21.2882L21.6065 19.9586C21.5957 19.8845 21.5634 19.8151 21.5136 19.7588C21.4637 19.7026 21.3985 19.6619 21.3257 19.6417C20.7577 19.4795 20.2146 19.2416 19.7113 18.9344C19.6489 18.8952 19.5766 18.8744 19.5027 18.8744C19.4288 18.8744 19.3565 18.8952 19.2941 18.9344L18.1554 19.7074L16.3772 17.8599L17.1805 16.7777C17.2249 16.7189 17.2513 16.6487 17.2568 16.5754C17.2624 16.5022 17.2467 16.4289 17.2117 16.3642C16.9309 15.8471 16.7186 15.2963 16.58 14.7254C16.5627 14.6533 16.5248 14.5876 16.4709 14.5362C16.417 14.4848 16.3493 14.4498 16.2759 14.4355L14.9422 14.1805L15.0046 11.6102L16.3577 11.4015C16.4313 11.3904 16.5002 11.3587 16.5561 11.3101C16.6121 11.2614 16.6529 11.198 16.6736 11.1271H16.6853Z" fill="url(#paint0_linear_1563_24152)"/>
<path d="M29.5537 31.3294L38.273 22.9346C38.7311 22.475 38.9916 21.8573 38.9998 21.2113C39.008 20.5653 38.7632 19.9413 38.3169 19.4705C37.8706 18.9996 37.2576 18.7185 36.6066 18.6863C35.9555 18.6541 35.3173 18.8732 34.8259 19.2977L30.396 23.2825H20.4639C19.3115 23.2788 18.1698 23.5017 17.1049 23.9382C16.0399 24.3747 15.0729 25.0163 14.2598 25.8257L10.8984 29.022L10.7151 28.8829C10.4138 28.6028 10.0127 28.4527 9.59988 28.4654C9.18642 28.4784 8.79507 28.6535 8.51191 28.9524L5.42349 32.2183C5.28298 32.3664 5.17331 32.5406 5.10078 32.7307C5.02825 32.9209 4.99427 33.1234 5.00079 33.3266C5.00731 33.5298 5.0542 33.7297 5.13878 33.9149C5.22335 34.1001 5.34396 34.267 5.49368 34.4059L12.6064 40.9803C12.7558 41.1195 12.9315 41.2282 13.1234 41.3001C13.3152 41.372 13.5195 41.4057 13.7245 41.3992C13.9295 41.3928 14.1313 41.3463 14.3181 41.2625C14.505 41.1786 14.6733 41.0591 14.8135 40.9107L17.902 37.6448C18.0431 37.4966 18.1532 37.3222 18.2261 37.1317C18.299 36.9412 18.3331 36.7382 18.3266 36.5346C18.3201 36.3309 18.273 36.1306 18.1881 35.945C18.1032 35.7594 17.9821 35.5923 17.8318 35.4533L18.8339 34.5721L25.4319 33.3005C26.9832 33.0973 28.4278 32.4064 29.5537 31.3294ZM17.3443 37.1153L14.2559 40.3812C14.1858 40.4554 14.1016 40.5152 14.0082 40.5571C13.9148 40.599 13.8139 40.6222 13.7114 40.6255C13.6089 40.6287 13.5068 40.6119 13.4108 40.5759C13.3149 40.54 13.2271 40.4856 13.1523 40.416L6.03572 33.8223C5.96083 33.7526 5.90057 33.6689 5.85841 33.5761C5.81625 33.4832 5.79302 33.383 5.79005 33.2812C5.78874 33.0833 5.86411 32.8924 6.00062 32.7478L9.09294 29.4819C9.16199 29.4071 9.24562 29.347 9.33878 29.3051C9.43195 29.2633 9.53271 29.2406 9.63497 29.2384H9.66227C9.85983 29.2402 10.0494 29.3161 10.1926 29.451L10.6333 29.8375L16.9895 35.7355L17.2975 36.0215C17.3724 36.0912 17.4327 36.1749 17.4748 36.2677C17.517 36.3606 17.5402 36.4608 17.5432 36.5626C17.5528 36.7656 17.4813 36.9641 17.3443 37.1153ZM18.5922 33.8416C18.5242 33.8546 18.4609 33.8853 18.4089 33.9305L17.2741 34.9316L15.6168 33.3856L11.4677 29.5515L14.8057 26.3783C15.5478 25.6409 16.4299 25.0563 17.401 24.6583C18.3721 24.2603 19.4131 24.0567 20.4639 24.0594H30.0061C30.336 24.0594 30.6524 24.1893 30.8857 24.4205C31.119 24.6517 31.25 24.9653 31.25 25.2923C31.25 25.6193 31.119 25.9329 30.8857 26.1641C30.6524 26.3953 30.336 26.5252 30.0061 26.5252H23.9735C23.8701 26.5252 23.7709 26.5659 23.6978 26.6384C23.6246 26.7109 23.5836 26.8092 23.5836 26.9117C23.5836 27.0142 23.6246 27.1125 23.6978 27.185C23.7709 27.2575 23.8701 27.2982 23.9735 27.2982H30.0178C30.4509 27.3024 30.874 27.1687 31.2248 26.9167C31.5756 26.6648 31.8356 26.308 31.9665 25.8987C32.0975 25.4895 32.0925 25.0494 31.9523 24.6431C31.8121 24.2369 31.544 23.886 31.1876 23.6419L35.3796 19.8697C35.7157 19.5566 36.1636 19.3886 36.6247 19.4027C37.0858 19.4168 37.5223 19.6119 37.8383 19.9451C38.1542 20.2782 38.3237 20.7221 38.3094 21.1791C38.2952 21.6361 38.0983 22.0688 37.7622 22.382L29.0117 30.7728C27.9997 31.7434 26.6995 32.3654 25.3032 32.5469L18.5922 33.8416ZM20.1793 16.0356C20.3058 16.1758 20.4441 16.3051 20.5926 16.4221L20.6628 16.4763C21.3063 16.971 22.0786 17.274 22.8894 17.3497H23.3028C24.4351 17.3442 25.521 16.903 26.3314 16.1192C27.1419 15.3354 27.6135 14.2703 27.6469 13.1485C27.6625 12.5844 27.5647 12.0229 27.3592 11.4967C27.1536 10.9705 26.8445 10.4901 26.4497 10.0836C25.6543 9.26141 24.5626 8.78515 23.4137 8.75907C22.2647 8.733 21.1522 9.15922 20.3197 9.94443C20.0441 10.209 19.8042 10.5078 19.606 10.8334C19.5229 10.9663 19.4487 11.1044 19.3838 11.2469C19.0106 12.0298 18.8853 12.9064 19.0245 13.7612C19.1637 14.616 19.5609 15.4089 20.1637 16.0356H20.1793ZM19.8439 12.333C19.9261 11.9447 20.0751 11.5734 20.2846 11.2353C20.4413 10.9706 20.6328 10.7275 20.8539 10.5126C21.5351 9.86705 22.4467 9.51554 23.3889 9.5351C24.3311 9.55466 25.2271 9.9437 25.8804 10.6169C26.2038 10.9502 26.4569 11.344 26.625 11.7754C26.7931 12.2067 26.8727 12.667 26.8592 13.1292C26.8453 13.7853 26.6473 14.4247 26.2874 14.9756C25.9275 15.5265 25.4198 15.9671 24.8214 16.2481C24.2229 16.529 23.5573 16.6391 22.8992 16.5661C22.2412 16.4931 21.6166 16.2398 21.0957 15.8347L21.0567 15.8037C20.9375 15.7117 20.8254 15.6109 20.7213 15.5023C20.3232 15.086 20.0335 14.5799 19.8772 14.0276C19.7209 13.4754 19.7028 12.8937 19.8244 12.333H19.8439ZM16.0107 10.6749L14.5796 10.8952C14.4873 10.91 14.4035 10.9572 14.3433 11.0281C14.2832 11.0991 14.2508 11.1891 14.252 11.2817L14.1701 14.4896C14.1684 14.5806 14.1992 14.6693 14.257 14.7399C14.3148 14.8106 14.3959 14.8589 14.486 14.8761L15.9015 15.1506C16.0279 15.6209 16.2003 16.0778 16.4162 16.5149L15.5583 17.6744C15.5032 17.7477 15.476 17.8381 15.4818 17.9294C15.4875 18.0206 15.5257 18.107 15.5895 18.173L17.8201 20.492C17.8835 20.5578 17.9684 20.5993 18.0597 20.6092C18.151 20.6191 18.2429 20.5968 18.3192 20.5461L19.5242 19.746C19.9533 19.9865 20.4052 20.1845 20.8734 20.3374L21.0879 21.7481C21.102 21.8403 21.1492 21.9243 21.2209 21.9846C21.2925 22.045 21.3838 22.0777 21.4778 22.0766L24.7144 22.1462C24.8062 22.1478 24.8956 22.1174 24.967 22.0601C25.0383 22.0028 25.0869 21.9224 25.1044 21.8331L25.389 20.4263C25.8646 20.296 26.3258 20.1186 26.7656 19.8968L27.7092 20.5809L27.7521 20.6079L27.9276 20.7355C28.0017 20.7886 28.0923 20.8142 28.1836 20.8079C28.2748 20.8015 28.3609 20.7636 28.4268 20.7007L30.7665 18.4822C30.8335 18.4198 30.8761 18.3359 30.8868 18.2454C30.8976 18.1549 30.8756 18.0635 30.825 17.9875L30.0451 16.8009C30.2734 16.367 30.4601 15.9128 30.6027 15.4443L32.0299 15.224C32.1229 15.21 32.2077 15.1632 32.2686 15.0922C32.3295 15.0212 32.3624 14.9307 32.3614 14.8375L32.4433 11.6218C32.4451 11.5314 32.4149 11.4432 32.3579 11.3726C32.3009 11.302 32.2207 11.2534 32.1313 11.2353L30.7197 10.9571C30.5938 10.4927 30.4241 10.041 30.2127 9.60817L31.0706 8.44868C31.1258 8.37535 31.1529 8.28501 31.1472 8.19372C31.1415 8.10243 31.1033 8.0161 31.0394 7.95009L28.8011 5.6311C28.7379 5.56623 28.6538 5.52531 28.5633 5.51543C28.4729 5.50555 28.3818 5.52733 28.3059 5.57699L27.0931 6.38864C26.6646 6.15354 26.2156 5.95693 25.7517 5.80116L25.5333 4.39431C25.5192 4.30215 25.472 4.21814 25.4003 4.15777C25.3287 4.0974 25.2374 4.06473 25.1434 4.06578L21.9068 4.00008C21.8155 3.99826 21.7265 4.0282 21.6553 4.08469C21.584 4.14119 21.535 4.22066 21.5168 4.30928L21.2438 5.71613C20.7674 5.84758 20.305 6.02492 19.8634 6.24564L18.6936 5.40307C18.6196 5.34839 18.5284 5.32149 18.4363 5.32716C18.3442 5.33282 18.2571 5.37067 18.1905 5.43399L15.8508 7.65636C15.7854 7.71901 15.7441 7.80237 15.7341 7.89201C15.7241 7.98166 15.7461 8.07193 15.7962 8.14721L16.5761 9.33376C16.4864 9.49609 16.3967 9.66228 16.3149 9.84007C16.1946 10.1126 16.0891 10.3912 15.999 10.6749H16.0107ZM16.6853 11.1271C16.7855 10.798 16.9093 10.4764 17.0558 10.1647C17.1567 9.94529 17.2713 9.7323 17.3989 9.52701C17.4392 9.46473 17.4607 9.39229 17.4607 9.3183C17.4607 9.24431 17.4392 9.17187 17.3989 9.10959L16.6541 7.98874L18.5142 6.21858L19.6099 7.01477C19.6697 7.05808 19.7407 7.08362 19.8146 7.08841C19.8885 7.0932 19.9622 7.07704 20.0272 7.04182C20.5095 6.7777 21.0229 6.57388 21.5558 6.43502H21.6026H21.6611C21.7367 6.42056 21.8064 6.3842 21.8612 6.33055C21.916 6.27689 21.9536 6.20834 21.9692 6.13355L22.2343 4.81173L24.8197 4.86197L25.0225 6.18766C25.0337 6.26059 25.0657 6.32882 25.1147 6.3843C25.1638 6.43977 25.2279 6.48017 25.2993 6.50072C25.8657 6.66732 26.4082 6.90501 26.9137 7.20802C26.9762 7.24719 27.0485 7.26798 27.1224 7.26798C27.1962 7.26798 27.2686 7.24719 27.331 7.20802L28.4658 6.45821L30.2478 8.30181L29.4328 9.34535C29.3891 9.40461 29.3634 9.47496 29.3585 9.5482C29.3537 9.62143 29.37 9.69452 29.4055 9.75891C29.6884 10.2759 29.9033 10.8266 30.0451 11.3977C30.063 11.4691 30.1012 11.534 30.1551 11.5846C30.2089 11.6353 30.2763 11.6697 30.3492 11.6837L31.6751 11.9465L31.6088 14.509L30.2595 14.7177C30.186 14.7288 30.1171 14.7605 30.0611 14.8091C30.0052 14.8578 29.9644 14.9213 29.9437 14.9921C29.7801 15.5544 29.5414 16.0925 29.234 16.5922C29.1944 16.6541 29.1735 16.7258 29.1735 16.799C29.1735 16.8722 29.1944 16.9439 29.234 17.0058L29.9827 18.1227L28.107 19.9006L27.0151 19.1044C26.9554 19.0611 26.8844 19.0356 26.8105 19.0308C26.7366 19.026 26.6629 19.0422 26.5979 19.0774C26.078 19.3622 25.5219 19.5767 24.9445 19.7151C24.8724 19.7329 24.807 19.7707 24.7558 19.8241C24.7047 19.8775 24.6701 19.9443 24.6559 20.0166L24.3908 21.3423L21.8054 21.2882L21.6065 19.9586C21.5957 19.8845 21.5634 19.8151 21.5136 19.7588C21.4637 19.7026 21.3985 19.6619 21.3257 19.6417C20.7577 19.4795 20.2146 19.2416 19.7113 18.9344C19.6489 18.8952 19.5766 18.8744 19.5027 18.8744C19.4288 18.8744 19.3565 18.8952 19.2941 18.9344L18.1554 19.7074L16.3772 17.8599L17.1805 16.7777C17.2249 16.7189 17.2513 16.6487 17.2568 16.5754C17.2624 16.5022 17.2467 16.4289 17.2117 16.3642C16.9309 15.8471 16.7186 15.2963 16.58 14.7254C16.5627 14.6533 16.5248 14.5876 16.4709 14.5362C16.417 14.4848 16.3493 14.4498 16.2759 14.4355L14.9422 14.1805L15.0046 11.6102L16.3577 11.4015C16.4313 11.3904 16.5002 11.3587 16.5561 11.3101C16.6121 11.2614 16.6529 11.198 16.6736 11.1271H16.6853Z" stroke="url(#paint1_linear_1563_24152)" stroke-width="0.2" mask="url(#path-1-outside-1_1563_24152)"/>
<defs>
<linearGradient id="paint0_linear_1563_24152" x1="22.7333" y1="41.4" x2="5" y2="41.4" gradientUnits="userSpaceOnUse">
<stop stop-color="#386FFF"/>
<stop offset="0.588542" stop-color="#164FE6"/>
<stop offset="1" stop-color="#0039D0"/>
<stop offset="1" stop-color="#003CDB"/>
</linearGradient>
<linearGradient id="paint1_linear_1563_24152" x1="22.7333" y1="41.4" x2="5" y2="41.4" gradientUnits="userSpaceOnUse">
<stop stop-color="#386FFF"/>
<stop offset="0.588542" stop-color="#164FE6"/>
<stop offset="1" stop-color="#0039D0"/>
<stop offset="1" stop-color="#003CDB"/>
</linearGradient>
</defs>
</svg>
